<svg xmlns="http://www.w3.org/2000/svg" width="1264" height="1025" viewBox="0 0 1264 1025">
  <g fill="none">
    <circle cx="744.5" cy="321.5" r="2.5" fill="#0056F2"/>
    <circle cx="523.5" cy="429.5" r="1.5" fill="#E61958" opacity=".5"/>
    <circle cx="693.5" cy="553.5" r="1.5" fill="#FFCF00"/>
    <circle cx="485.5" cy="644.5" r="3.5" fill="#00B2CF" opacity=".3"/>
    <circle cx="337" cy="391" r="2" fill="#7900FF" transform="matrix(-1 0 0 1 674 0)"/>
    <circle cx="73" cy="356" r="3" fill="#6800F2" transform="matrix(-1 0 0 1 146 0)"/>
    <circle cx="242" cy="337" r="1" fill="#B02483" transform="matrix(-1 0 0 1 484 0)"/>
    <circle cx="181" cy="1" r="1" fill="#FFCF00" transform="matrix(-1 0 0 1 362 0)"/>
    <circle cx="1151" cy="645" r="2" fill="#00C3E3" transform="matrix(1 0 0 -1 0 1290)"/>
    <circle cx="1011" cy="656" r="3" fill="#FC006E" transform="matrix(1 0 0 -1 0 1312)"/>
    <circle cx="1079.5" cy="493.5" r="1.5" fill="#FFF" opacity=".5" transform="matrix(1 0 0 -1 0 987)"/>
    <circle cx="862" cy="770" r="1" fill="#BE105C" transform="matrix(1 0 0 -1 0 1540)"/>
    <circle cx="818.5" cy="841.5" r="1.5" fill="#FFF" opacity=".5" transform="rotate(180 818.5 841.5)"/>
    <circle cx="818.5" cy="841.5" r="1.5" fill="#BC34B1" transform="rotate(180 818.5 841.5)"/>
    <circle cx="513.5" cy="938.5" r="1.5" fill="#FFF"/>
    <circle cx="303" cy="1024" r="1" fill="#FFF"/>
    <circle cx="43" cy="460" r="3" fill="#00B1CE" opacity=".2" transform="matrix(-1 0 0 1 86 0)"/>
    <circle cx="1261" cy="628" r="3" fill="#00B1CE" opacity=".3" transform="matrix(-1 0 0 1 2522 0)"/>
    <circle cx="62" cy="722" r="1" fill="#FFF" transform="matrix(-1 0 0 1 124 0)"/>
    <circle cx="1" cy="374" r="1" fill="#FFF" opacity=".5" transform="matrix(-1 0 0 1 2 0)"/>
    <circle cx="899.5" cy="878.5" r="1.5" fill="#FFF" transform="matrix(1 0 0 -1 0 1757)"/>
    <circle cx="722" cy="941" r="1" fill="#FFF" transform="matrix(1 0 0 -1 0 1882)"/>
    <circle cx="1055" cy="365" r="1" fill="#00C3E3" transform="rotate(180 1055 365)"/>
    <circle cx="752" cy="943" r="1" fill="#1379FF" transform="rotate(180 752 943)"/>
    <circle cx="435.5" cy="212.5" r="1.5" fill="#FFF" transform="matrix(-1 0 0 1 871 0)"/>
    <circle cx="246" cy="213" r="1" fill="#FFF" transform="rotate(180 246 213)"/>
    <circle cx="667" cy="113" r="2" fill="#FFF" opacity=".5" transform="matrix(-1 0 0 1 1334 0)"/>
    <circle cx="572" cy="58" r="1" fill="#FFCF00" transform="matrix(-1 0 0 1 1144 0)"/>
    <circle cx="1237" cy="113" r="2" fill="#FFF" opacity=".5" transform="matrix(-1 0 0 1 2474 0)"/>
    <circle cx="1142" cy="58" r="1" fill="#FFF" transform="matrix(-1 0 0 1 2284 0)"/>
    <circle cx="981" cy="135" r="3" fill="#00C7E4"/>
    <circle cx="567" cy="283" r="3" fill="#359110" opacity=".257"/>
    <circle cx="182" cy="687" r="2" fill="#FFF" opacity=".5"/>
    <circle cx="410" cy="598" r="1" fill="#FFCF00" transform="rotate(180 410 598)"/>
    <circle cx="382" cy="600" r="1" fill="#1379FF" transform="matrix(1 0 0 -1 0 1200)"/>
    <circle cx="1051" cy="156" r="2" fill="#1379FF" transform="matrix(1 0 0 -1 0 312)"/>
    <circle cx="905" cy="184" r="2" fill="#FFF" transform="matrix(1 0 0 -1 0 368)"/>
    <circle cx="898" cy="171.5" r="1" fill="#1379FF" transform="matrix(1 0 0 -1 0 343)"/>
    <circle cx="987" cy="19" r="1" fill="#FFF" opacity=".5" transform="matrix(1 0 0 -1 0 38)"/>
    <circle cx="753.5" cy="331.5" r="1.5" fill="#FFF" opacity=".5" transform="rotate(180 753.5 331.5)"/>
    <circle cx="479.5" cy="419.5" r="1.5" fill="#FFF"/>
    <circle cx="291" cy="495" r="1" fill="#42C20E"/>
    <circle cx="160" cy="272" r="2" fill="#39AA0C" transform="matrix(-1 0 0 1 320 0)"/>
    <circle cx="187" cy="459" r="2" fill="#FFDC00" opacity=".457" transform="matrix(-1 0 0 1 374 0)"/>
    <circle cx="2" cy="272" r="2" fill="#FFF" opacity=".4" transform="matrix(-1 0 0 1 4 0)"/>
    <circle cx="103.5" cy="42.5" r="2.5" fill="#FFF" opacity=".5" transform="matrix(-1 0 0 1 207 0)"/>
    <circle cx="76" cy="224" r="1" fill="#FFF" transform="matrix(-1 0 0 1 152 0)"/>
    <circle cx="890" cy="500" r="2" fill="#0056F2" transform="matrix(-1 0 0 1 1780 0)"/>
    <circle cx="1160" cy="505" r="3" fill="#FFF" opacity=".5" transform="matrix(1 0 0 -1 0 1010)"/>
    <circle cx="826" cy="363" r="1" fill="#FFF" transform="matrix(1 0 0 -1 0 726)"/>
    <circle cx="667" cy="420" r="1" fill="#FFF" transform="matrix(1 0 0 -1 0 840)"/>
    <circle cx="592.5" cy="675.5" r="1.5" fill="#FFCF00" opacity=".5" transform="rotate(180 592.5 675.5)"/>
    <circle cx="694" cy="422" r="1" fill="#1379FF" transform="rotate(180 694 422)"/>
    <ellipse cx="182.5" cy="193" fill="#FFF" opacity=".5" rx="1.5" ry="2"/>
    <circle cx="386.5" cy="114" r="1" fill="#1379FF" transform="rotate(180 386.5 114)"/>
    <circle cx="362" cy="115" r="1" fill="#FFCF00" transform="matrix(1 0 0 -1 0 230)"/>
    <circle cx="313.5" cy="770.5" r="1.5" fill="#00C3E3" transform="matrix(-1 0 0 1 627 0)"/>
    <circle cx="804.5" cy="890.5" r="1.5" fill="#FFCF00"/>
    <circle cx="386.5" cy="383.5" r="1" fill="#1379FF" opacity=".5" transform="matrix(-1 0 0 1 773 0)"/>
    <circle cx="973.5" cy="891" r="1" fill="#1379FF" transform="matrix(1 0 0 -1 0 1782)"/>
    <circle cx="597" cy="802" r="2" fill="#1379FF" opacity=".5"/>
    <circle cx="681" cy="753" r="1" fill="#1379FF"/>
    <circle cx="678.5" cy="642" r="1" fill="#1379FF" transform="matrix(1 0 0 -1 0 1284)"/>
    <circle cx="87" cy="802" r="2" fill="#FFCF00" opacity=".5"/>
    <circle cx="1212.5" cy="812" r="1" fill="#1379FF" opacity=".5"/>
    <circle cx="1215.5" cy="926.5" r="2.5" fill="#FFF" transform="rotate(180 1215.5 926.5)"/>
    <circle cx="1213" cy="427" r="1" fill="#1379FF" opacity=".5"/>
    <circle cx="1111.5" cy="963" r="1" fill="#1379FF" transform="rotate(180 1111.5 963)"/>
    <circle cx="1215" cy="844" r="2" fill="#FFCF00" opacity=".5" transform="matrix(-1 0 0 1 2430 0)"/>
    <circle cx="167.5" cy="642" r="1" fill="#1379FF" transform="matrix(1 0 0 -1 0 1284)"/>
    <circle cx="1101.5" cy="464.5" r="4.5" fill="#FFB100" opacity=".2" transform="matrix(-1 0 0 1 2203 0)"/>
    <circle cx="1091" cy="974" r="3" fill="#BE105C" transform="matrix(-1 0 0 1 2182 0)"/>
    <circle cx="369.5" cy="964.5" r="2.5" fill="#00C3E3" transform="rotate(180 369.5 964.5)"/>
    <circle cx="302.5" cy="925.5" r="1.5" fill="#42C20E" transform="rotate(180 302.5 925.5)"/>
    <circle cx="701.5" cy="976.5" r="1.5" fill="#FFF" transform="rotate(180 701.5 976.5)"/>
    <circle cx="537" cy="494" r="2" fill="#42C20E" transform="matrix(1 0 0 -1 0 988)"/>
    <circle cx="1141" cy="145" r="4" fill="#FFB100" opacity=".5"/>
    <circle cx="77" cy="145" r="4" fill="#34BCAB" opacity=".5"/>
    <circle cx="212.5" cy="84.5" r="2.5" fill="#FF006F"/>
    <circle cx="107.5" cy="635.5" r="3.5" fill="#1379FF" transform="rotate(180 107.5 635.5)"/>
    <circle cx="36" cy="966" r="4" fill="#FFEA13" opacity=".3" transform="rotate(180 36 966)"/>
    <circle cx="237" cy="983" r="2" fill="#FF00D2" opacity=".3" transform="rotate(180 237 983)"/>
    <circle cx="726.5" cy="108.5" r="3.5" fill="#00B1CE" opacity=".3" transform="rotate(180 726.5 108.5)"/>
    <circle cx="709.5" cy="255.5" r="1.5" fill="#1379FF" transform="rotate(180 709.5 255.5)"/>
    <circle cx="840.5" cy="72.5" r="1.5" fill="#BE105C" transform="rotate(180 840.5 72.5)"/>
    <circle cx="978" cy="555" r="3" fill="#39AA0C" opacity=".5" transform="matrix(1 0 0 -1 0 1110)"/>
    <circle cx="722" cy="848" r="2" fill="#368A13"/>
    <circle cx="844" cy="615" r="2" fill="#FFF" transform="rotate(180 844 615)"/>
    <circle cx="1141.5" cy="721.5" r="1.5" fill="#FFB100" transform="rotate(180 1141.5 721.5)"/>
    <circle cx="1089.5" cy="726.5" r="1.5" fill="#1379FF" transform="matrix(1 0 0 -1 0 1453)"/>
    <circle cx="121" cy="735" r="2" fill="#1379FF" opacity=".5" transform="matrix(-1 0 0 1 242 0)"/>
  </g>
</svg>
