<?xml version="1.0" encoding="UTF-8"?>
<svg width="20px" height="20px" viewBox="0 0 20 20" version="1.1" xmlns="http://www.w3.org/2000/svg" xmlns:xlink="http://www.w3.org/1999/xlink">
    <!-- Generator: Sketch 46.2 (44496) - http://www.bohemiancoding.com/sketch -->
    <title>icon-settings-blue</title>
    <desc>Created with Sketch.</desc>
    <defs></defs>
    <g id="Developer-Pages" stroke="none" stroke-width="1" fill="none" fill-rule="evenodd">
        <g id="manage-account-password" transform="translate(-526.000000, -116.000000)" fill-rule="nonzero" fill="#326ADA">
            <g id="icon-settings-blue" transform="translate(526.000000, 116.000000)">
                <path d="M10,5.33333333 C7.42666667,5.33333333 5.33333333,7.42666667 5.33333333,10 C5.33333333,12.5733333 7.42666667,14.6666667 10,14.6666667 C12.5733333,14.6666667 14.6666667,12.5733333 14.6666667,10 C14.6666667,7.42666667 12.5733333,5.33333333 10,5.33333333 Z M10,13.3333333 C8.16266667,13.3333333 6.66666667,11.8373333 6.66666667,10 C6.66666667,8.16266667 8.16266667,6.66666667 10,6.66666667 C11.8373333,6.66666667 13.3333333,8.16266667 13.3333333,10 C13.3333333,11.8373333 11.8373333,13.3333333 10,13.3333333 Z" id="Shape"></path>
                <path d="M20,12 L20,8 L17.056,8 C16.9,7.45466667 16.6813333,6.92933333 16.4,6.428 L18.484,4.34266667 L15.656,1.51466667 L13.572,3.6 C13.0706667,3.31866667 12.5453333,3.1 12,2.944 L12,0 L8,0 L8,2.944 C7.45466667,3.1 6.92933333,3.31866667 6.428,3.6 L4.34266667,1.51466667 L1.51466667,4.34266667 L3.6,6.428 C3.31866667,6.92933333 3.1,7.45466667 2.944,8 L0,8 L0,12 L2.944,12 C3.1,12.5453333 3.31866667,13.0706667 3.6,13.572 L1.516,15.6573333 L4.344,18.4853333 L6.428,16.4 C6.928,16.6813333 7.45466667,16.9 8,17.056 L8,20 L12,20 L12,17.056 C12.5453333,16.9 13.0706667,16.6813333 13.572,16.4 L15.6573333,18.484 L18.4853333,15.656 L16.4,13.572 C16.6813333,13.072 16.9,12.5453333 17.056,12 L20,12 Z M16.6,15.6573333 L15.6573333,16.6 L13.76,14.7026667 L13.3053333,15.0026667 C12.6533333,15.432 11.9453333,15.728 11.2,15.88 L10.6666667,15.988 L10.6666667,18.6666667 L9.33333333,18.6666667 L9.33333333,15.988 L8.8,15.88 C8.05466667,15.728 7.34666667,15.4333333 6.696,15.0026667 L6.24133333,14.7026667 L4.34266667,16.6 L3.4,15.6573333 L5.29733333,13.76 L4.99866667,13.3053333 C4.568,12.6533333 4.272,11.9453333 4.12,11.2 L4.012,10.6666667 L1.33333333,10.6666667 L1.33333333,9.33333333 L4.012,9.33333333 L4.12,8.8 C4.272,8.05466667 4.56666667,7.34666667 4.99733333,6.696 L5.29733333,6.24133333 L3.4,4.34266667 L4.34266667,3.4 L6.24,5.29733333 L6.69466667,4.99733333 C7.34666667,4.568 8.05466667,4.272 8.8,4.12 L9.33333333,4.012 L9.33333333,1.33333333 L10.6666667,1.33333333 L10.6666667,4.012 L11.2,4.12 C11.9453333,4.272 12.6533333,4.56666667 13.304,4.99733333 L13.7586667,5.29733333 L15.656,3.4 L16.5986667,4.34266667 L14.7013333,6.24 L15.0013333,6.69466667 C15.432,7.34666667 15.728,8.05466667 15.88,8.8 L15.988,9.33333333 L18.6666667,9.33333333 L18.6666667,10.6666667 L15.988,10.6666667 L15.88,11.2 C15.728,11.9453333 15.4333333,12.6533333 15.0026667,13.304 L14.7026667,13.7586667 L16.6,15.6573333 Z" id="Shape"></path>
            </g>
        </g>
    </g>
</svg>