<?xml version="1.0" encoding="UTF-8"?>
<svg width="37px" height="19px" viewBox="0 0 37 19" version="1.1" xmlns="http://www.w3.org/2000/svg" xmlns:xlink="http://www.w3.org/1999/xlink">
    <!-- Generator: Sketch 46.2 (44496) - http://www.bohemiancoding.com/sketch -->
    <title>icon-overview-black</title>
    <desc>Created with Sketch.</desc>
    <defs></defs>
    <g id="Developer-Pages" stroke="none" stroke-width="1" fill="none" fill-rule="evenodd">
        <g id="project-modules" transform="translate(-297.000000, -116.000000)">
            <g id="icon-overview-black" transform="translate(297.000000, 116.000000)">
                <path d="M26.1538462,2.53934199 C25.3484287,2.32843857 23.4176278,2.00216571 23.4176278,2.00216571 C23.4176278,2.00216571 20.7808697,0 18.4568829,0 C16.1333192,0 13.5054492,2.00216571 13.5054492,2.00216571 C13.5054492,2.00216571 11.5750714,2.32843857 10.7692308,2.53934199 C14.3790075,3.79990487 16.9683631,7.10797162 16.9683631,10.9912663 C16.9683631,12.5861982 16.5281981,14.0839768 15.7642578,15.3846154 L18.4556132,15.3846154 L18.4661941,15.3846154 L21.1571262,15.3846154 C20.3931859,14.0839768 19.9530208,12.5870078 19.9530208,10.9912663 C19.9547138,7.10837643 22.5444926,3.80030968 26.1538462,2.53934199 Z" id="Shape" fill="#000000" fill-rule="nonzero"></path>
                <g id="Group-2" transform="translate(0.000000, 1.538462)">
                    <g id="Group" transform="translate(21.538462, 1.230769)">
                        <path d="M7.69249305,0 C3.45105628,0 0,3.45068556 0,7.69212233 C0,11.9335591 3.45105628,15.3846154 7.69249305,15.3846154 C11.9339298,15.3846154 15.3846154,11.9331884 15.3846154,7.69212233 C15.3846154,3.44994411 11.9339298,0 7.69249305,0 Z" id="Shape" fill="#000000" fill-rule="nonzero"></path>
                        <circle id="Oval-3" fill="#FFFFFF" cx="7.69230769" cy="7.69230769" r="6.15384615"></circle>
                        <path d="M7.03138462,4.09504065 C8.42876508,4.04545244 9.8288574,4.64283549 10.7481765,5.83411493 C11.6674955,7.02500696 11.8898677,8.53124906 11.4881256,9.86974352 C12.6209065,8.55836762 12.715434,6.58956043 11.6155829,5.16428659 C10.5157317,3.73940016 8.58682752,3.33068477 7.03138462,4.09504065 Z" id="Shape" fill="#000000" fill-rule="nonzero"></path>
                    </g>
                    <g id="Group-Copy" transform="translate(7.692308, 9.230769) scale(-1, 1) translate(-7.692308, -9.230769) translate(0.000000, 1.538462)">
                        <path d="M7.69249305,0 C3.45105628,0 0,3.45068556 0,7.69212233 C0,11.9335591 3.45105628,15.3846154 7.69249305,15.3846154 C11.9339298,15.3846154 15.3846154,11.9331884 15.3846154,7.69212233 C15.3846154,3.44994411 11.9339298,0 7.69249305,0 Z" id="Shape" fill="#000000" fill-rule="nonzero"></path>
                        <circle id="Oval-3" fill="#FFFFFF" cx="7.69230769" cy="7.69230769" r="6.15384615"></circle>
                        <path d="M7.03138462,4.09504065 C8.42876508,4.04545244 9.8288574,4.64283549 10.7481765,5.83411493 C11.6674955,7.02500696 11.8898677,8.53124906 11.4881256,9.86974352 C12.6209065,8.55836762 12.715434,6.58956043 11.6155829,5.16428659 C10.5157317,3.73940016 8.58682752,3.33068477 7.03138462,4.09504065 Z" id="Shape" fill="#000000" fill-rule="nonzero"></path>
                    </g>
                </g>
            </g>
        </g>
    </g>
</svg>