<?xml version="1.0" encoding="UTF-8"?>
<svg width="37px" height="19px" viewBox="0 0 37 19" version="1.1" xmlns="http://www.w3.org/2000/svg" xmlns:xlink="http://www.w3.org/1999/xlink">
    <!-- Generator: Sketch 46.2 (44496) - http://www.bohemiancoding.com/sketch -->
    <title>icon-overview-blue</title>
    <desc>Created with Sketch.</desc>
    <defs></defs>
    <g id="Developer-Pages" stroke="none" stroke-width="1" fill="none" fill-rule="evenodd">
        <g id="project-overview" transform="translate(-299.000000, -117.000000)">
            <g id="icon-overview-blue" transform="translate(299.000000, 117.000000)">
                <path d="M26.1538462,2.53934199 C25.3484287,2.32843857 23.4176278,2.00216571 23.4176278,2.00216571 C23.4176278,2.00216571 20.7808697,0 18.4568829,0 C16.1333192,0 13.5054492,2.00216571 13.5054492,2.00216571 C13.5054492,2.00216571 11.5750714,2.32843857 10.7692308,2.53934199 C14.3790075,3.79990487 16.9683631,7.10797162 16.9683631,10.9912663 C16.9683631,12.5861982 16.5281981,14.0839768 15.7642578,15.3846154 L18.4556132,15.3846154 L18.4661941,15.3846154 L21.1571262,15.3846154 C20.3931859,14.0839768 19.9530208,12.5870078 19.9530208,10.9912663 C19.9547138,7.10837643 22.5444926,3.80030968 26.1538462,2.53934199 Z" id="Shape" fill="#326ADA" fill-rule="nonzero"></path>
                <path d="M29.2309546,2.76923077 C24.9895178,2.76923077 21.5384615,6.21991633 21.5384615,10.4613531 C21.5384615,14.7027899 24.9895178,18.1538462 29.2309546,18.1538462 C33.4723914,18.1538462 36.9230769,14.7024192 36.9230769,10.4613531 C36.9230769,6.21917488 33.4723914,2.76923077 29.2309546,2.76923077 Z" id="Shape" fill="#326ADA" fill-rule="nonzero"></path>
                <circle id="Oval-3" fill="#FFFFFF" cx="29.2307692" cy="10.4615385" r="6.15384615"></circle>
                <path d="M28.5698462,6.86427142 C29.9672266,6.81468321 31.3673189,7.41206626 32.286638,8.6033457 C33.2059571,9.79423773 33.4283292,11.3004798 33.0265872,12.6389743 C34.159368,11.3275984 34.2538956,9.3587912 33.1540444,7.93351736 C32.0541932,6.50863093 30.1252891,6.09991554 28.5698462,6.86427142 Z" id="Shape" fill="#326ADA" fill-rule="nonzero"></path>
                <path d="M7.69249305,3.07692308 C3.45105628,3.07692308 0,6.52760864 0,10.7690454 C0,15.0104822 3.45105628,18.4615385 7.69249305,18.4615385 C11.9339298,18.4615385 15.3846154,15.0101115 15.3846154,10.7690454 C15.3846154,6.52686719 11.9339298,3.07692308 7.69249305,3.07692308 Z" id="Shape" fill="#326ADA" fill-rule="nonzero" transform="translate(7.692308, 10.769231) scale(-1, 1) translate(-7.692308, -10.769231) "></path>
                <circle id="Oval-3" fill="#FFFFFF" transform="translate(7.692308, 10.769231) scale(-1, 1) translate(-7.692308, -10.769231) " cx="7.69230769" cy="10.7692308" r="6.15384615"></circle>
                <path d="M2.99345734,7.17196373 C4.3908378,7.12237551 5.79093012,7.71975857 6.71024918,8.91103801 C7.62956824,10.10193 7.8519404,11.6081721 7.45019836,12.9466666 C8.5829792,11.6352907 8.67750674,9.6664835 7.57765558,8.24120967 C6.47780441,6.81632324 4.54890024,6.40760785 2.99345734,7.17196373 Z" id="Shape" fill="#326ADA" fill-rule="nonzero" transform="translate(5.673344, 9.869744) scale(-1, 1) translate(-5.673344, -9.869744) "></path>
            </g>
        </g>
    </g>
</svg>