<?xml version="1.0" encoding="UTF-8"?>
<svg width="22px" height="20px" viewBox="0 0 22 20" version="1.1" xmlns="http://www.w3.org/2000/svg" xmlns:xlink="http://www.w3.org/1999/xlink">
    <!-- Generator: Sketch 46.2 (44496) - http://www.bohemiancoding.com/sketch -->
    <title>icon-team-blue</title>
    <desc>Created with Sketch.</desc>
    <defs></defs>
    <g id="Assets" stroke="none" stroke-width="1" fill="none" fill-rule="evenodd">
        <g id="Artboard" transform="translate(-259.000000, -1203.000000)" fill-rule="nonzero" fill="#326ADA">
            <g id="icon-team-blue" transform="translate(259.000000, 1203.000000)">
                <path d="M20.3562333,16.0181818 L16.7728,14.4789091 C16.6884667,14.4370909 16.5949667,14.3349091 16.5146667,14.1985455 L18.9071667,14.1967273 C18.9489667,14.2007273 19.9353,14.2901818 20.7262,13.9530909 C21.0257667,13.8250909 21.2487,13.5723636 21.3381667,13.2596364 C21.4283667,12.944 21.3711667,12.6098182 21.1819667,12.3421818 C20.4981333,11.3770909 18.9020333,8.85527273 18.8521667,6.29745455 C18.8510667,6.25345455 18.7066,1.90363636 14.3751667,1.86836364 C13.7375333,1.87345455 13.1479333,1.98072727 12.6115,2.17854545 C12.4945333,1.88290909 12.3222,1.57454545 12.0659,1.28436364 C11.3131333,0.432 10.0910333,0 8.43333333,0 C6.77563333,0 5.55353333,0.432 4.8004,1.28363636 C3.93213333,2.26581818 4.0128,3.45672727 4.03333333,3.65636364 L4.03333333,5.59054545 C3.79866667,5.85563636 3.66666667,6.19490909 3.66666667,6.54509091 L3.66666667,7.99963636 C3.66666667,8.44218182 3.86943333,8.85490909 4.21556667,9.13018182 C4.55143333,10.4490909 5.25433333,11.4429091 5.5,11.7618182 L5.5,12.9650909 C5.5,13.3170909 5.3064,13.64 4.9951,13.8087273 L1.72406667,15.5781818 C0.660366667,16.1541818 0,17.2574545 0,18.4589091 L0,20 L16.1333333,20 L16.8666667,20 L22,20 L22,18.6556364 C22,17.5312727 21.3700667,16.5210909 20.3562333,16.0181818 Z M16.1333333,19.2727273 L0.733333333,19.2727273 L0.733333333,18.4589091 C0.733333333,17.524 1.2474,16.6647273 2.07496667,16.2174545 L5.346,14.448 C5.89343333,14.1516364 6.23333333,13.5832727 6.23333333,12.9654545 L6.23333333,11.504 L6.1479,11.4029091 C6.1391,11.3923636 5.2404,10.3141818 4.89756667,8.83381818 L4.8642,8.68981818 L4.73916667,8.60981818 C4.52686667,8.47381818 4.4,8.24581818 4.4,8 L4.4,6.54545455 C4.4,6.34145455 4.48726667,6.15127273 4.64566667,6.00909091 L4.76666667,5.90109091 L4.76666667,3.63636364 L4.76336667,3.58872727 C4.76226667,3.57890909 4.6376,2.57090909 5.35186667,1.76290909 C5.95943333,1.07563636 6.99636667,0.727272727 8.43333333,0.727272727 C9.86516667,0.727272727 10.8999,1.07309091 11.5082,1.75563636 C11.8107,2.09454545 11.9628667,2.47309091 12.0387667,2.79818182 C12.0446333,2.82363636 12.0501333,2.84872727 12.0552667,2.87381818 C12.0604,2.89963636 12.0659,2.92545455 12.0699333,2.95018182 C12.0747,2.97854545 12.0787333,3.00545455 12.0827667,3.03236364 C12.0857,3.05163636 12.0886333,3.07127273 12.0908333,3.08981818 C12.0963333,3.13490909 12.1007333,3.17854545 12.1036667,3.21890909 C12.1040333,3.22218182 12.1040333,3.22509091 12.1040333,3.22836364 C12.1066,3.26763636 12.1084333,3.30472727 12.1095333,3.33854545 C12.1095333,3.34509091 12.1095333,3.35054545 12.1099,3.35709091 C12.1106333,3.38727273 12.1106333,3.416 12.1102667,3.44109091 C12.1102667,3.44472727 12.1102667,3.44836364 12.1102667,3.452 C12.1088,3.53745455 12.1029333,3.58836364 12.1029333,3.58945455 L12.1,5.90109091 L12.221,6.00945455 C12.3794,6.15127273 12.4666667,6.34145455 12.4666667,6.54545455 L12.4666667,8 C12.4666667,8.31745455 12.2569333,8.59527273 11.9452667,8.69054545 L11.7626667,8.74618182 L11.704,8.92618182 C11.4587,9.68290909 11.1092667,10.3818182 10.6648667,11.0036364 C10.5559667,11.1567273 10.45,11.2923636 10.3579667,11.396 L10.2666667,11.4992727 L10.2666667,12.9992727 C10.2666667,13.0912727 10.2758333,13.1814545 10.2901333,13.2701818 C10.2930667,13.2890909 10.2982,13.3072727 10.3018667,13.3261818 C10.3161667,13.3992727 10.3352333,13.4709091 10.3587,13.5407273 C10.3642,13.5570909 10.3700667,13.5727273 10.3763,13.5890909 C10.4049,13.6650909 10.4382667,13.7385455 10.4771333,13.8090909 C10.4815333,13.8170909 10.4855667,13.8254545 10.4899667,13.8334545 C10.5431333,13.9265455 10.6043667,14.0149091 10.6747667,14.0963636 L10.7583667,14.1985455 L10.7726667,14.1985455 C10.8984333,14.3214545 11.0429,14.4283636 11.2071667,14.5098182 L14.7099333,16.2465455 C15.5881,16.6814545 16.1333333,17.5563636 16.1333333,18.5298182 L16.1333333,19.2727273 Z M21.2666667,19.2727273 L16.8666667,19.2727273 L16.8666667,18.5298182 C16.8666667,17.2792727 16.1659667,16.1552727 15.0384667,15.596 L12.5238667,14.3487273 C12.5858333,14.2083636 12.5939,14.0476364 12.5396333,13.8927273 C12.4498,13.6363636 12.2151333,13.4709091 11.9419667,13.4709091 L11.1290667,13.4709091 C11.1122,13.4414545 11.1012,13.4090909 11.0876333,13.3778182 C11.0693,13.336 11.0476667,13.2949091 11.0355667,13.2509091 C11.0132,13.1701818 11,13.0858182 11,12.9992727 L11,11.7698182 C11.0839667,11.668 11.1723333,11.552 11.2636333,11.424 C11.7179333,10.7876364 12.0820333,10.0792727 12.3467667,9.31527273 C12.8641333,9.08 13.2,8.57272727 13.2,8 L13.2,6.54545455 C13.2,6.19527273 13.068,5.856 12.8333333,5.59090909 L12.8333333,3.65672727 C12.8428667,3.56581818 12.8634,3.268 12.8025333,2.87890909 C13.2748,2.69490909 13.8039,2.6 14.3755333,2.59527273 C17.9839,2.62472727 18.1155333,6.16290909 18.1192,6.312 C18.1731,9.06945455 19.8594,11.74 20.5821,12.76 C20.6440667,12.8472727 20.6627667,12.9570909 20.6330667,13.0607273 C20.6162,13.1203636 20.5678,13.2287273 20.4369,13.2843636 C19.8209,13.5472727 18.9852667,13.4727273 18.9423667,13.4709091 L16.4186,13.4709091 C16.1828333,13.4709091 15.9679667,13.5898182 15.8436667,13.7887273 C15.7197333,13.9869091 15.708,14.2290909 15.8121333,14.4370909 C15.9269,14.6665455 16.1296667,14.9730909 16.4629667,15.1378182 L20.0368667,16.6730909 C20.7955,17.0530909 21.2666667,17.8116364 21.2666667,18.6556364 L21.2666667,19.2727273 Z" id="Shape"></path>
            </g>
        </g>
    </g>
</svg>