<?xml version="1.0" encoding="UTF-8"?>
<svg width="31px" height="20px" viewBox="0 0 31 20" version="1.1" xmlns="http://www.w3.org/2000/svg" xmlns:xlink="http://www.w3.org/1999/xlink">
    <!-- Generator: Sketch 46.2 (44496) - http://www.bohemiancoding.com/sketch -->
    <title>icon-review-black</title>
    <desc>Created with Sketch.</desc>
    <defs></defs>
    <g id="Assets" stroke="none" stroke-width="1" fill="none" fill-rule="evenodd">
        <g id="Artboard" transform="translate(-1050.000000, -1305.000000)" fill-rule="nonzero" fill="#000000">
            <g id="icon-review-black" transform="translate(1050.000000, 1305.000000)">
                <g id="Group">
                    <path d="M27.562963,5.64401235 C25.8806173,4.35259259 23.6530247,3.64135802 21.2903704,3.64135802 C19.8617901,3.64135802 18.4828395,3.90185185 17.2437654,4.39290123 C16.6244444,3.21407407 15.5912346,2.17012346 14.2769136,1.4104321 C12.7295062,0.515925926 10.8896914,0.0431481481 8.95660494,0.0431481481 C6.59395062,0.0431481481 4.36635802,0.754382716 2.68401235,2.04580247 C0.953148148,3.37432099 0,5.1558642 0,7.06209877 C0,8.77895062 0.78537037,10.412963 2.2182716,11.6923457 L2.24265432,15.8747531 C2.24388889,16.0930247 2.35462963,16.3048765 2.54888889,16.4043827 C2.77950617,16.5225926 2.99944444,16.494321 3.16074074,16.4101852 L7.49950617,13.988642 C7.98055556,14.0501235 8.4695679,14.0812346 8.95660494,14.0812346 C8.9567284,14.0812346 8.95685185,14.0812346 8.95697531,14.0812346 C10.3674691,14.0812346 11.7514815,13.8223457 12.9980247,13.3297531 C13.4529012,14.2011111 14.1335802,14.9982099 15.017716,15.6769136 C16.7000617,16.9683333 18.927716,17.6795062 21.2903704,17.6795062 C21.7797531,17.6795062 22.2715432,17.6480247 22.7551235,17.5859259 L27.099321,19.8754321 C27.3458642,20.0009877 27.528642,19.9703086 27.7044444,19.8587654 C27.8864815,19.7432716 28.0030864,19.548642 28.0043827,19.332963 L28.0287654,15.290679 C29.4615432,14.011358 30.2469136,12.3772222 30.2469136,10.6604321 C30.2469136,8.75419753 29.2937654,6.97271605 27.562963,5.64401235 Z M8.95691358,12.8466049 C8.95679012,12.8466049 8.95654321,12.8466049 8.95654321,12.8466049 C8.45388889,12.8466049 7.94888889,12.8094444 7.45567901,12.736358 C7.27907407,12.7103086 7.10895062,12.7614815 6.9795679,12.8648765 L3.47098765,14.8231481 L3.45123457,11.4166667 C3.45148148,11.404321 3.45123457,11.3918519 3.45061728,11.3793827 C3.44253086,11.2059259 3.36185185,11.0438889 3.22814815,10.9330247 C1.94265432,9.86623457 1.2345679,8.49148148 1.2345679,7.06209877 C1.2345679,3.87253086 4.6987037,1.27765432 8.95660494,1.27765432 C12.1111728,1.27765432 14.9632099,2.75123457 16.1264815,4.91975309 C15.7361111,5.13580247 15.3651235,5.37734568 15.0176543,5.64401235 C13.2868519,6.97265432 12.3337037,8.75419753 12.3337037,10.6604321 C12.3337037,11.1791975 12.4049383,11.688642 12.5425309,12.1824074 C11.4405556,12.6178395 10.2124691,12.8466049 8.95691358,12.8466049 Z M27.0187037,14.531358 C26.8851235,14.6422222 26.8044444,14.8043827 26.796358,14.9777778 C26.7957407,14.9890123 26.7956173,15.0001852 26.7956173,15.011358 L26.7758642,18.3094444 L23.2560494,16.4544444 C23.1281481,16.3568519 22.9628395,16.3092593 22.7910494,16.3346914 C22.297716,16.4079012 21.7927778,16.445 21.2902469,16.445 C17.8033333,16.445 14.8493827,14.7046296 13.8937037,12.3226543 C13.8897531,12.3110494 13.8846914,12.2997531 13.8799383,12.2882716 C13.6774074,11.7716667 13.5681481,11.2254321 13.5681481,10.6604321 C13.5681481,8.60814815 15.0025926,6.80222222 17.1596296,5.77518519 C17.1611728,5.7745679 17.1627778,5.77419753 17.164321,5.77358025 C17.1884568,5.76407407 17.211358,5.75271605 17.233642,5.74055556 C18.4132099,5.19277778 19.8032099,4.87592593 21.2902469,4.87592593 C25.5481481,4.87592593 29.012284,7.4708642 29.012284,10.6604321 C29.0123457,12.0897531 28.3042593,13.4645062 27.0187037,14.531358 Z" id="Shape"></path>
                    <path d="M24.9166667,8.59228395 L17.6638889,8.59228395 C17.322963,8.59228395 17.0466049,8.86864198 17.0466049,9.2095679 C17.0466049,9.55049383 17.322963,9.82685185 17.6638889,9.82685185 L24.9166667,9.82685185 C25.2574691,9.82685185 25.5339506,9.55049383 25.5339506,9.2095679 C25.5339506,8.86864198 25.2575309,8.59228395 24.9166667,8.59228395 Z" id="Shape"></path>
                    <path d="M24.9166667,11.3869753 L17.6638889,11.3869753 C17.322963,11.3869753 17.0466049,11.6633333 17.0466049,12.0042593 C17.0466049,12.3451852 17.322963,12.6215432 17.6638889,12.6215432 L24.9166667,12.6215432 C25.2574691,12.6215432 25.5339506,12.3451852 25.5339506,12.0042593 C25.5339506,11.6633333 25.2575309,11.3869753 24.9166667,11.3869753 Z" id="Shape"></path>
                </g>
                <g id="Group">
                    <path d="M27.562963,5.64401235 C25.8806173,4.35259259 23.6530247,3.64135802 21.2903704,3.64135802 C19.8617901,3.64135802 18.4828395,3.90185185 17.2437654,4.39290123 C16.6244444,3.21407407 15.5912346,2.17012346 14.2769136,1.4104321 C12.7295062,0.515925926 10.8896914,0.0431481481 8.95660494,0.0431481481 C6.59395062,0.0431481481 4.36635802,0.754382716 2.68401235,2.04580247 C0.953148148,3.37432099 0,5.1558642 0,7.06209877 C0,8.77895062 0.78537037,10.412963 2.2182716,11.6923457 L2.24265432,15.8747531 C2.24388889,16.0930247 2.35462963,16.3048765 2.54888889,16.4043827 C2.77950617,16.5225926 2.99944444,16.494321 3.16074074,16.4101852 L7.49950617,13.988642 C7.98055556,14.0501235 8.4695679,14.0812346 8.95660494,14.0812346 C8.9567284,14.0812346 8.95685185,14.0812346 8.95697531,14.0812346 C10.3674691,14.0812346 11.7514815,13.8223457 12.9980247,13.3297531 C13.4529012,14.2011111 14.1335802,14.9982099 15.017716,15.6769136 C16.7000617,16.9683333 18.927716,17.6795062 21.2903704,17.6795062 C21.7797531,17.6795062 22.2715432,17.6480247 22.7551235,17.5859259 L27.099321,19.8754321 C27.3458642,20.0009877 27.528642,19.9703086 27.7044444,19.8587654 C27.8864815,19.7432716 28.0030864,19.548642 28.0043827,19.332963 L28.0287654,15.290679 C29.4615432,14.011358 30.2469136,12.3772222 30.2469136,10.6604321 C30.2469136,8.75419753 29.2937654,6.97271605 27.562963,5.64401235 Z M8.95691358,12.8466049 C8.95679012,12.8466049 8.95654321,12.8466049 8.95654321,12.8466049 C8.45388889,12.8466049 7.94888889,12.8094444 7.45567901,12.736358 C7.27907407,12.7103086 7.10895062,12.7614815 6.9795679,12.8648765 L3.47098765,14.8231481 L3.45123457,11.4166667 C3.45148148,11.404321 3.45123457,11.3918519 3.45061728,11.3793827 C3.44253086,11.2059259 3.36185185,11.0438889 3.22814815,10.9330247 C1.94265432,9.86623457 1.2345679,8.49148148 1.2345679,7.06209877 C1.2345679,3.87253086 4.6987037,1.27765432 8.95660494,1.27765432 C12.1111728,1.27765432 14.9632099,2.75123457 16.1264815,4.91975309 C15.7361111,5.13580247 15.3651235,5.37734568 15.0176543,5.64401235 C13.2868519,6.97265432 12.3337037,8.75419753 12.3337037,10.6604321 C12.3337037,11.1791975 12.4049383,11.688642 12.5425309,12.1824074 C11.4405556,12.6178395 10.2124691,12.8466049 8.95691358,12.8466049 Z M27.0187037,14.531358 C26.8851235,14.6422222 26.8044444,14.8043827 26.796358,14.9777778 C26.7957407,14.9890123 26.7956173,15.0001852 26.7956173,15.011358 L26.7758642,18.3094444 L23.2560494,16.4544444 C23.1281481,16.3568519 22.9628395,16.3092593 22.7910494,16.3346914 C22.297716,16.4079012 21.7927778,16.445 21.2902469,16.445 C17.8033333,16.445 14.8493827,14.7046296 13.8937037,12.3226543 C13.8897531,12.3110494 13.8846914,12.2997531 13.8799383,12.2882716 C13.6774074,11.7716667 13.5681481,11.2254321 13.5681481,10.6604321 C13.5681481,7.40845679 17.0865432,4.87592593 21.2902469,4.87592593 C25.4939506,4.87592593 29.0123457,7.4708642 29.0123457,10.6604321 C29.0123457,12.0897531 28.3042593,13.4645062 27.0187037,14.531358 Z" id="Shape"></path>
                    <path d="M24.9166667,8.59228395 L17.6638889,8.59228395 C17.322963,8.59228395 17.0466049,8.86864198 17.0466049,9.2095679 C17.0466049,9.55049383 17.322963,9.82685185 17.6638889,9.82685185 L24.9166667,9.82685185 C25.2574691,9.82685185 25.5339506,9.55049383 25.5339506,9.2095679 C25.5339506,8.86864198 25.2575309,8.59228395 24.9166667,8.59228395 Z" id="Shape"></path>
                    <path d="M24.9166667,11.3869753 L17.6638889,11.3869753 C17.322963,11.3869753 17.0466049,11.6633333 17.0466049,12.0042593 C17.0466049,12.3451852 17.322963,12.6215432 17.6638889,12.6215432 L24.9166667,12.6215432 C25.2574691,12.6215432 25.5339506,12.3451852 25.5339506,12.0042593 C25.5339506,11.6633333 25.2575309,11.3869753 24.9166667,11.3869753 Z" id="Shape"></path>
                </g>
            </g>
        </g>
    </g>
</svg>