<?xml version="1.0" encoding="UTF-8"?>
<svg width="25px" height="20px" viewBox="0 0 25 20" version="1.1" xmlns="http://www.w3.org/2000/svg" xmlns:xlink="http://www.w3.org/1999/xlink">
    <!-- Generator: Sketch 46.2 (44496) - http://www.bohemiancoding.com/sketch -->
    <title>icon-activity-black</title>
    <desc>Created with Sketch.</desc>
    <defs></defs>
    <g id="Assets" stroke="none" stroke-width="1" fill="none" fill-rule="evenodd">
        <g id="Artboard" transform="translate(-357.000000, -1305.000000)" fill-rule="nonzero" fill="#000000">
            <g id="icon-activity-black" transform="translate(357.000000, 1305.000000)">
                <path d="M9.13043478,0.869565217 C4.09298435,0.869565217 0,4.9626087 0,10 C0,15.0374783 4.09298435,19.1304348 9.13043478,19.1304348 C14.1678852,19.1304348 18.2608696,15.0374783 18.2608696,10 C18.2608696,9.33669565 18.1867043,8.6906087 18.0519704,8.06721739 L19.5991843,7.65113043 L20.492527,9.0166087 C20.5960096,9.17347826 20.7885009,9.24608696 20.9697687,9.19669565 L24.5838991,8.2286087 C24.8692539,8.15208696 24.9965722,7.81895652 24.8352583,7.57130435 L23.8213313,6.02408696 L23.9266304,4.17626087 C23.9417435,3.91365217 23.7219357,3.69782609 23.4595791,3.71773913 C23.4326052,3.71773913 23.4058835,3.72643478 23.379753,3.73165217 L19.7639243,4.70147826 C19.5833191,4.75017391 19.4540504,4.90878261 19.4429322,5.09547826 L19.344427,6.82104348 L17.8277826,7.22695652 C16.6518991,3.54269565 13.2010209,0.869913043 9.13043478,0.869913043 L9.13043478,0.869565217 Z M9.13043478,1.73913043 C12.8077739,1.73913043 15.9159635,4.13391304 16.9887904,7.45078261 L15.3006113,7.90417391 C14.4253948,5.33382609 11.993533,3.47826087 9.13043478,3.47826087 C5.53372783,3.47826087 2.60869304,6.40330435 2.60869565,10 C2.60869304,13.5966957 5.53372783,16.5217391 9.13043478,16.5217391 C12.7271417,16.5217391 15.6521765,13.5966957 15.6521739,10 C15.6521739,9.56991304 15.6079826,9.15017391 15.528193,8.74321739 L17.2129757,8.29147826 C17.3284643,8.84234783 17.3913043,9.41434783 17.3913043,10 C17.3913043,14.5675652 13.6979365,18.2608696 9.13043478,18.2608696 C4.56293217,18.2608696 0.869565217,14.5675652 0.869565217,10 C0.869565217,5.43252174 4.56293217,1.73913043 9.13043478,1.73913043 Z M9.13043478,4.34782609 C11.5999609,4.34782609 13.688553,5.92565217 14.4599183,8.12843478 L12.7683426,8.58182609 C12.1978452,7.1253913 10.785473,6.08695652 9.13043478,6.08695652 C6.97447391,6.08695652 5.21737217,7.84408696 5.2173913,10 C5.21742609,12.155913 6.97451217,13.9130435 9.13043478,13.9130435 C11.2863583,13.9130435 13.0434435,12.155913 13.0434783,10 C13.04348,9.80313043 13.014,9.61347826 12.9857304,9.42426087 L14.6857983,8.96913043 C14.7472243,9.30347826 14.7826087,9.64756522 14.7826087,10 C14.7826104,13.1267826 12.257193,15.6521739 9.13043478,15.6521739 C6.00367565,15.6521739 3.47825913,13.1267826 3.47826087,10 C3.47825913,6.87330435 6.00367565,4.34782609 9.13043478,4.34782609 L9.13043478,4.34782609 Z M23.0230974,4.72652174 L23.0230974,4.72652174 L22.9449757,6.11582609 C22.9399322,6.20895652 22.9649148,6.30121739 23.0163061,6.37904348 L23.7788739,7.54243478 L21.0478957,8.27443478 L20.4823391,7.4133913 L20.7999339,7.32817391 C21.2952626,7.20095652 21.2026478,6.47165217 20.6912383,6.47226087 C20.6516643,6.472 20.6122383,6.48095652 20.5740504,6.48704348 L20.2292817,6.57878261 L20.2921252,5.45443478 L23.0230974,4.72652174 Z M9.13043478,6.95652174 C10.3922261,6.95652174 11.4702652,7.71669565 11.9327443,8.80608696 L10.2072009,9.268 C9.9714087,8.92304348 9.57573478,8.69565217 9.13043478,8.69565217 C8.41521304,8.69565217 7.82608696,9.28478261 7.82608696,10 C7.82608696,10.7152174 8.41521304,11.3043478 9.13043478,11.3043478 C9.80766261,11.3043478 10.3648652,10.7737391 10.4228939,10.1104348 L12.1399461,9.65182609 C12.1531809,9.76747826 12.1739113,9.88069565 12.1739113,10 C12.1738835,11.686 10.816413,13.0434783 9.13043304,13.0434783 C7.44445304,13.0434783 6.08698174,11.686 6.08695478,10 C6.08694,8.314 7.44442261,6.95652174 9.13043304,6.95652174 L9.13043478,6.95652174 Z M9.03362783,9.58391304 C9.01261913,9.5926087 8.99557565,9.60043478 8.97588,9.6073913 C8.63385652,9.77695652 8.66025739,10.2733043 9.01834087,10.4056522 C8.83211913,10.3578261 8.69565217,10.2043478 8.69565217,10 C8.69565217,9.81208696 8.81296348,9.6686087 8.97588348,9.60765217 C8.99453565,9.59808696 9.01384,9.59026087 9.0336313,9.58417391 L9.03362783,9.58391304 Z M9.08797565,10.4262609 C9.10645391,10.4262609 9.12517565,10.4349565 9.14401913,10.4349565 C9.13914957,10.4351304 9.13532348,10.4349565 9.13042783,10.4349565 C9.11524522,10.4349565 9.1026887,10.4262609 9.08796696,10.4262609 L9.08797565,10.4262609 Z" id="circle6319"></path>
            </g>
        </g>
    </g>
</svg>