<?xml version="1.0" encoding="UTF-8"?>
<svg width="20px" height="20px" viewBox="0 0 20 20" version="1.1" xmlns="http://www.w3.org/2000/svg" xmlns:xlink="http://www.w3.org/1999/xlink">
    <!-- Generator: Sketch 46.2 (44496) - http://www.bohemiancoding.com/sketch -->
    <title>icon-wallet-blue</title>
    <desc>Created with Sketch.</desc>
    <defs></defs>
    <g id="Assets" stroke="none" stroke-width="1" fill="none" fill-rule="evenodd">
        <g id="Artboard" transform="translate(-949.000000, -1203.000000)" fill-rule="nonzero" fill="#326ADA">
            <g id="icon-wallet-blue" transform="translate(949.000000, 1203.000000)">
                <path d="M19.064,10.0697447 L19.064,7.2627234 C19.064,6.31089362 18.3257021,5.53680851 17.3928936,5.46174468 L14.7860851,0.908553191 C14.5445106,0.487446809 14.1544255,0.186468085 13.6876596,0.0614893617 C13.2231064,-0.0626382979 12.7373191,0.00255319149 12.3215319,0.244553191 L3.38523404,5.44710638 L1.81574468,5.44710638 C0.814425532,5.44710638 0.000127659574,6.2613617 0.000127659574,7.2627234 L0.000127659574,18.1563404 C0.000127659574,19.1576596 0.814382979,19.9719574 1.81574468,19.9719574 L17.248383,19.9719574 C18.2497021,19.9719574 19.064,19.1577021 19.064,18.1563404 L19.064,15.3493191 C19.5911915,15.1613191 19.9717872,14.6622128 19.9717872,14.071234 L19.9717872,11.3478298 C19.9717872,10.7568511 19.5911915,10.2577447 19.064,10.0697447 Z M16.3380426,5.44710638 L12.3818298,5.44710638 L15.3490213,3.71961702 L16.3380426,5.44710638 Z M14.898,2.93182979 L10.577617,5.44710638 L8.78557447,5.44710638 L14.4499149,2.14923404 L14.898,2.93182979 Z M12.7785106,1.02910638 C12.9837447,0.908978723 13.2235319,0.87706383 13.4527234,0.938255319 C13.6845532,1.00029787 13.8778298,1.15012766 13.9979574,1.35978723 L13.9988936,1.36144681 L6.98144681,5.44710638 L5.18948936,5.44710638 L12.7785106,1.02910638 Z M18.1561702,18.1563404 C18.1561702,18.656766 17.7488085,19.0641277 17.248383,19.0641277 L1.81574468,19.0641277 C1.31531915,19.0641277 0.907957447,18.656766 0.907957447,18.1563404 L0.907957447,7.2627234 C0.907957447,6.76229787 1.31531915,6.35493617 1.81574468,6.35493617 L17.248383,6.35493617 C17.7488085,6.35493617 18.1561702,6.76229787 18.1561702,7.2627234 L18.1561702,9.98612766 L15.432766,9.98612766 C13.9309787,9.98612766 12.7093617,11.2077447 12.7093617,12.7095319 C12.7093617,14.2113191 13.9309787,15.4329362 15.432766,15.4329362 L18.1561702,15.4329362 L18.1561702,18.1563404 Z M19.064,14.071234 C19.064,14.3216596 18.8605532,14.5251489 18.6100851,14.5251489 L15.432766,14.5251489 C14.4314468,14.5251489 13.6171489,13.7108936 13.6171489,12.7095319 C13.6171489,11.7082128 14.4314043,10.8939149 15.432766,10.8939149 L18.6100851,10.8939149 C18.8605106,10.8939149 19.064,11.0973617 19.064,11.3478298 L19.064,14.071234 L19.064,14.071234 Z" id="Shape"></path>
                <path d="M15.432766,11.8017447 C14.9323404,11.8017447 14.5249787,12.2091064 14.5249787,12.7095319 C14.5249787,13.2099574 14.9323404,13.6173191 15.432766,13.6173191 C15.9331915,13.6173191 16.3405532,13.2099574 16.3405532,12.7095319 C16.3405957,12.2091064 15.933234,11.8017447 15.432766,11.8017447 Z" id="Shape"></path>
            </g>
        </g>
    </g>
</svg>