<?xml version="1.0" encoding="UTF-8"?>
<svg width="26px" height="20px" viewBox="0 0 26 20" version="1.1" xmlns="http://www.w3.org/2000/svg" xmlns:xlink="http://www.w3.org/1999/xlink">
    <!-- Generator: Sketch 46.2 (44496) - http://www.bohemiancoding.com/sketch -->
    <title>icon-import-project-black</title>
    <desc>Created with Sketch.</desc>
    <defs></defs>
    <g id="Assets" stroke="none" stroke-width="1" fill="none" fill-rule="evenodd">
        <g id="Artboard" transform="translate(-1311.000000, -1305.000000)" fill-rule="nonzero">
            <g id="icon-import-project-black" transform="translate(1311.000000, 1305.000000)">
                <path d="M21.1037037,3.14814815 L10.3777778,3.14814815 L10.3777778,1.3037037 C10.3777778,0.687037037 9.8762963,0.185185185 9.25925926,0.185185185 L1.11851852,0.185185185 C0.501481481,0.185185185 0,0.686666667 0,1.3037037 L0,6.48148148 L0,7.22222222 L0,18.6962963 C0,19.312963 0.501481481,19.8148148 1.11851852,19.8148148 L21.1037037,19.8148148 C21.7203704,19.8148148 22.2222222,19.3133333 22.2222222,18.6962963 L22.2222222,7.22222222 L22.2222222,6.48148148 L22.2222222,4.26666667 C22.2222222,3.64962963 21.7207407,3.14814815 21.1037037,3.14814815 Z M21.4814815,18.6962963 C21.4814815,18.9048148 21.3122222,19.0740741 21.1037037,19.0740741 L1.11851852,19.0740741 C0.91,19.0740741 0.740740741,18.9048148 0.740740741,18.6962963 L0.740740741,7.22222222 L21.4814815,7.22222222 L21.4814815,18.6962963 Z M0.740740741,6.48148148 L0.740740741,1.3037037 C0.740740741,1.09518519 0.91,0.925925926 1.11851852,0.925925926 L9.25925926,0.925925926 C9.46740741,0.925925926 9.63703704,1.09518519 9.63703704,1.3037037 L9.63703704,3.88888889 L21.1037037,3.88888889 C21.3122222,3.88888889 21.4814815,4.05814815 21.4814815,4.26666667 L21.4814815,6.48148148 L0.740740741,6.48148148 Z" id="Shape" fill="#000000"></path>
                <path d="M14.0969305,11.5236878 L11.9826199,9.40937715 L11.9826199,16.4570177 L19.0302605,16.4570177 L16.9159498,14.3427071 C16.9159498,14.3427071 19.2789785,10.4457867 25,11.8967879 C25,11.8967879 22.8027988,8.62173171 18.4498416,9.03627709 C18.4498877,9.07772239 16.3770685,9.16065916 14.0969305,11.5236878" id="Shape" stroke="#000000" stroke-width="0.6" fill="#FFFFFF"></path>
            </g>
        </g>
    </g>
</svg>